TITLE ""
FILE "LR_black_phrase_S02.mp3" MP3
  TRACK 01 AUDIO
    TITLE "LR_black_phrase_S02_001"
    INDEX 01 00:00:00
  TRACK 02 AUDIO
    TITLE "LR_black_phrase_S02_002"
    INDEX 01 00:00:14
  TRACK 03 AUDIO
    TITLE "LR_black_phrase_S02_003"
    INDEX 01 00:01:31
  TRACK 04 AUDIO
    TITLE "LR_black_phrase_S02_004"
    INDEX 01 00:01:72
  TRACK 05 AUDIO
    TITLE "LR_black_phrase_S02_005"
    INDEX 01 00:04:24
  TRACK 06 AUDIO
    TITLE "LR_black_phrase_S02_006"
    INDEX 01 00:05:25
  TRACK 07 AUDIO
    TITLE "LR_black_phrase_S02_007"
    INDEX 01 00:07:06
  TRACK 08 AUDIO
    TITLE "LR_black_phrase_S02_008"
    INDEX 01 00:07:44
  TRACK 09 AUDIO
    TITLE "LR_black_phrase_S02_009"
    INDEX 01 00:09:50
  TRACK 10 AUDIO
    TITLE "LR_black_phrase_S02_010"
    INDEX 01 00:10:05
  TRACK 11 AUDIO
    TITLE "LR_black_phrase_S02_011"
    INDEX 01 00:12:10
  TRACK 12 AUDIO
    TITLE "LR_black_phrase_S02_012"
    INDEX 01 00:13:15
  TRACK 13 AUDIO
    TITLE "LR_black_phrase_S02_013"
    INDEX 01 00:14:40
  TRACK 14 AUDIO
    TITLE "LR_black_phrase_S02_014"
    INDEX 01 00:15:04
  TRACK 15 AUDIO
    TITLE "LR_black_phrase_S02_015"
    INDEX 01 00:16:29
  TRACK 16 AUDIO
    TITLE "LR_black_phrase_S02_016"
    INDEX 01 00:17:24
  TRACK 17 AUDIO
    TITLE "LR_black_phrase_S02_017"
    INDEX 01 00:19:74
  TRACK 18 AUDIO
    TITLE "LR_black_phrase_S02_018"
    INDEX 01 00:20:40
  TRACK 19 AUDIO
    TITLE "LR_black_phrase_S02_019"
    INDEX 01 00:23:07
  TRACK 20 AUDIO
    TITLE "LR_black_phrase_S02_020"
    INDEX 01 00:23:35
  TRACK 21 AUDIO
    TITLE "LR_black_phrase_S02_021"
    INDEX 01 00:26:04
  TRACK 22 AUDIO
    TITLE "LR_black_phrase_S02_022"
    INDEX 01 00:27:07
  TRACK 23 AUDIO
    TITLE "LR_black_phrase_S02_023"
    INDEX 01 00:28:30
  TRACK 24 AUDIO
    TITLE "LR_black_phrase_S02_024"
    INDEX 01 00:28:61
  TRACK 25 AUDIO
    TITLE "LR_black_phrase_S02_025"
    INDEX 01 00:31:13
  TRACK 26 AUDIO
    TITLE "LR_black_phrase_S02_026"
    INDEX 01 00:32:12
  TRACK 27 AUDIO
    TITLE "LR_black_phrase_S02_027"
    INDEX 01 00:33:59
  TRACK 28 AUDIO
    TITLE "LR_black_phrase_S02_028"
    INDEX 01 00:34:17
  TRACK 29 AUDIO
    TITLE "LR_black_phrase_S02_029"
    INDEX 01 00:35:75
  TRACK 30 AUDIO
    TITLE "LR_black_phrase_S02_030"
    INDEX 01 00:36:22
  TRACK 31 AUDIO
    TITLE "LR_black_phrase_S02_031"
    INDEX 01 00:38:05
  TRACK 32 AUDIO
    TITLE "LR_black_phrase_S02_032"
    INDEX 01 00:39:08
  TRACK 33 AUDIO
    TITLE "LR_black_phrase_S02_033"
    INDEX 01 00:40:29
  TRACK 34 AUDIO
    TITLE "LR_black_phrase_S02_034"
    INDEX 01 00:40:71
  TRACK 35 AUDIO
    TITLE "LR_black_phrase_S02_035"
    INDEX 01 00:43:57
  TRACK 36 AUDIO
    TITLE "LR_black_phrase_S02_036"
    INDEX 01 00:44:57
  TRACK 37 AUDIO
    TITLE "LR_black_phrase_S02_037"
    INDEX 01 00:46:65
  TRACK 38 AUDIO
    TITLE "LR_black_phrase_S02_038"
    INDEX 01 00:47:29
  TRACK 39 AUDIO
    TITLE "LR_black_phrase_S02_039"
    INDEX 01 00:49:28
  TRACK 40 AUDIO
    TITLE "LR_black_phrase_S02_040"
    INDEX 01 00:49:58
  TRACK 41 AUDIO
    TITLE "LR_black_phrase_S02_041"
    INDEX 01 00:51:55
  TRACK 42 AUDIO
    TITLE "LR_black_phrase_S02_042"
    INDEX 01 00:52:60
  TRACK 43 AUDIO
    TITLE "LR_black_phrase_S02_043"
    INDEX 01 00:54:06
  TRACK 44 AUDIO
    TITLE "LR_black_phrase_S02_044"
    INDEX 01 00:54:47
  TRACK 45 AUDIO
    TITLE "LR_black_phrase_S02_045"
    INDEX 01 00:55:58
  TRACK 46 AUDIO
    TITLE "LR_black_phrase_S02_046"
    INDEX 01 00:56:60
  TRACK 47 AUDIO
    TITLE "LR_black_phrase_S02_047"
    INDEX 01 00:59:31
  TRACK 48 AUDIO
    TITLE "LR_black_phrase_S02_048"
    INDEX 01 00:59:70
  TRACK 49 AUDIO
    TITLE "LR_black_phrase_S02_049"
    INDEX 01 01:02:19
  TRACK 50 AUDIO
    TITLE "LR_black_phrase_S02_050"
    INDEX 01 01:02:47
  TRACK 51 AUDIO
    TITLE "LR_black_phrase_S02_051"
    INDEX 01 01:04:71
  TRACK 52 AUDIO
    TITLE "LR_black_phrase_S02_052"
    INDEX 01 01:05:74
  TRACK 53 AUDIO
    TITLE "LR_black_phrase_S02_053"
    INDEX 01 01:07:16
  TRACK 54 AUDIO
    TITLE "LR_black_phrase_S02_054"
    INDEX 01 01:07:58
  TRACK 55 AUDIO
    TITLE "LR_black_phrase_S02_055"
    INDEX 01 01:10:46
  TRACK 56 AUDIO
    TITLE "LR_black_phrase_S02_056"
    INDEX 01 01:11:48
  TRACK 57 AUDIO
    TITLE "LR_black_phrase_S02_057"
    INDEX 01 01:14:24
  TRACK 58 AUDIO
    TITLE "LR_black_phrase_S02_058"
    INDEX 01 01:14:62
  TRACK 59 AUDIO
    TITLE "LR_black_phrase_S02_059"
    INDEX 01 01:17:25
  TRACK 60 AUDIO
    TITLE "LR_black_phrase_S02_060"
    INDEX 01 01:17:52
  TRACK 61 AUDIO
    TITLE "LR_black_phrase_S02_061"
    INDEX 01 01:20:15
  TRACK 62 AUDIO
    TITLE "LR_black_phrase_S02_062"
    INDEX 01 01:21:17
  TRACK 63 AUDIO
    TITLE "LR_black_phrase_S02_063"
    INDEX 01 01:22:53
  TRACK 64 AUDIO
    TITLE "LR_black_phrase_S02_064"
    INDEX 01 01:23:19
  TRACK 65 AUDIO
    TITLE "LR_black_phrase_S02_065"
    INDEX 01 01:25:59
  TRACK 66 AUDIO
    TITLE "LR_black_phrase_S02_066"
    INDEX 01 01:26:59
  TRACK 67 AUDIO
    TITLE "LR_black_phrase_S02_067"
    INDEX 01 01:28:60
  TRACK 68 AUDIO
    TITLE "LR_black_phrase_S02_068"
    INDEX 01 01:29:26
  TRACK 69 AUDIO
    TITLE "LR_black_phrase_S02_069"
    INDEX 01 01:31:35
  TRACK 70 AUDIO
    TITLE "LR_black_phrase_S02_070"
    INDEX 01 01:31:62
  TRACK 71 AUDIO
    TITLE "LR_black_phrase_S02_071"
    INDEX 01 01:33:73
  TRACK 72 AUDIO
    TITLE "LR_black_phrase_S02_072"
    INDEX 01 01:34:74
  TRACK 73 AUDIO
    TITLE "LR_black_phrase_S02_073"
    INDEX 01 01:36:38
  TRACK 74 AUDIO
    TITLE "LR_black_phrase_S02_074"
    INDEX 01 01:36:75
  TRACK 75 AUDIO
    TITLE "LR_black_phrase_S02_075"
    INDEX 01 01:39:65
  TRACK 76 AUDIO
    TITLE "LR_black_phrase_S02_076"
    INDEX 01 01:40:65
  TRACK 77 AUDIO
    TITLE "LR_black_phrase_S02_077"
    INDEX 01 01:42:38
  TRACK 78 AUDIO
    TITLE "LR_black_phrase_S02_078"
    INDEX 01 01:43:03
  TRACK 79 AUDIO
    TITLE "LR_black_phrase_S02_079"
    INDEX 01 01:45:13
  TRACK 80 AUDIO
    TITLE "LR_black_phrase_S02_080"
    INDEX 01 01:45:46
  TRACK 81 AUDIO
    TITLE "LR_black_phrase_S02_081"
    INDEX 01 01:47:59
  TRACK 82 AUDIO
    TITLE "LR_black_phrase_S02_082"
    INDEX 01 01:48:72
  TRACK 83 AUDIO
    TITLE "LR_black_phrase_S02_083"
    INDEX 01 01:50:10
  TRACK 84 AUDIO
    TITLE "LR_black_phrase_S02_084"
    INDEX 01 01:50:52
  TRACK 85 AUDIO
    TITLE "LR_black_phrase_S02_085"
    INDEX 01 01:51:63
  TRACK 86 AUDIO
    TITLE "LR_black_phrase_S02_086"
    INDEX 01 01:52:62
  TRACK 87 AUDIO
    TITLE "LR_black_phrase_S02_087"
    INDEX 01 01:54:71
  TRACK 88 AUDIO
    TITLE "LR_black_phrase_S02_088"
    INDEX 01 01:55:37
  TRACK 89 AUDIO
    TITLE "LR_black_phrase_S02_089"
    INDEX 01 01:57:50
  TRACK 90 AUDIO
    TITLE "LR_black_phrase_S02_090"
    INDEX 01 01:58:04
  TRACK 91 AUDIO
    TITLE "LR_black_phrase_S02_091"
    INDEX 01 02:00:21
  TRACK 92 AUDIO
    TITLE "LR_black_phrase_S02_092"
    INDEX 01 02:01:26
  TRACK 93 AUDIO
    TITLE "LR_black_phrase_S02_093"
    INDEX 01 02:02:37
  TRACK 94 AUDIO
    TITLE "LR_black_phrase_S02_094"
    INDEX 01 02:03:01
  TRACK 95 AUDIO
    TITLE "LR_black_phrase_S02_095"
    INDEX 01 02:04:44
  TRACK 96 AUDIO
    TITLE "LR_black_phrase_S02_096"
    INDEX 01 02:05:41
  TRACK 97 AUDIO
    TITLE "LR_black_phrase_S02_097"
    INDEX 01 02:08:01
  TRACK 98 AUDIO
    TITLE "LR_black_phrase_S02_098"
    INDEX 01 02:08:38
  TRACK 99 AUDIO
    TITLE "LR_black_phrase_S02_099"
    INDEX 01 02:10:68
  TRACK 100 AUDIO
    TITLE "LR_black_phrase_S02_100"
    INDEX 01 02:11:22
  TRACK 101 AUDIO
    TITLE "LR_black_phrase_S02_101"
    INDEX 01 02:13:53
  TRACK 102 AUDIO
    TITLE "LR_black_phrase_S02_102"
    INDEX 01 02:14:56
  TRACK 103 AUDIO
    TITLE "LR_black_phrase_S02_103"
    INDEX 01 02:16:02
  TRACK 104 AUDIO
    TITLE "LR_black_phrase_S02_104"
    INDEX 01 02:16:41
  TRACK 105 AUDIO
    TITLE "LR_black_phrase_S02_105"
    INDEX 01 02:18:56
  TRACK 106 AUDIO
    TITLE "LR_black_phrase_S02_106"
    INDEX 01 02:19:57
  TRACK 107 AUDIO
    TITLE "LR_black_phrase_S02_107"
    INDEX 01 02:22:16
  TRACK 108 AUDIO
    TITLE "LR_black_phrase_S02_108"
    INDEX 01 02:22:48
  TRACK 109 AUDIO
    TITLE "LR_black_phrase_S02_109"
    INDEX 01 02:24:62
  TRACK 110 AUDIO
    TITLE "LR_black_phrase_S02_110"
    INDEX 01 02:25:11
  TRACK 111 AUDIO
    TITLE "LR_black_phrase_S02_111"
    INDEX 01 02:27:25
  TRACK 112 AUDIO
    TITLE "LR_black_phrase_S02_112"
    INDEX 01 02:28:29
  TRACK 113 AUDIO
    TITLE "LR_black_phrase_S02_113"
    INDEX 01 02:29:63
  TRACK 114 AUDIO
    TITLE "LR_black_phrase_S02_114"
    INDEX 01 02:30:28
  TRACK 115 AUDIO
    TITLE "LR_black_phrase_S02_115"
    INDEX 01 02:33:26
  TRACK 116 AUDIO
    TITLE "LR_black_phrase_S02_116"
    INDEX 01 02:34:25
  TRACK 117 AUDIO
    TITLE "LR_black_phrase_S02_117"
    INDEX 01 02:38:06
  TRACK 118 AUDIO
    TITLE "LR_black_phrase_S02_118"
    INDEX 01 02:38:47
  TRACK 119 AUDIO
    TITLE "LR_black_phrase_S02_119"
    INDEX 01 02:42:46
  TRACK 120 AUDIO
    TITLE "LR_black_phrase_S02_120"
    INDEX 01 02:43:03
  TRACK 121 AUDIO
    TITLE "LR_black_phrase_S02_121"
    INDEX 01 02:47:01
  TRACK 122 AUDIO
    TITLE "LR_black_phrase_S02_122"
    INDEX 01 02:48:08
  TRACK 123 AUDIO
    TITLE "LR_black_phrase_S02_123"
    INDEX 01 02:49:25
  TRACK 124 AUDIO
    TITLE "LR_black_phrase_S02_124"
    INDEX 01 02:49:60
  TRACK 125 AUDIO
    TITLE "LR_black_phrase_S02_125"
    INDEX 01 02:51:73
  TRACK 126 AUDIO
    TITLE "LR_black_phrase_S02_126"
    INDEX 01 02:52:70
  TRACK 127 AUDIO
    TITLE "LR_black_phrase_S02_127"
    INDEX 01 02:56:15
  TRACK 128 AUDIO
    TITLE "LR_black_phrase_S02_128"
    INDEX 01 02:56:56
  TRACK 129 AUDIO
    TITLE "LR_black_phrase_S02_129"
    INDEX 01 02:59:17
  TRACK 130 AUDIO
    TITLE "LR_black_phrase_S02_130"
    INDEX 01 02:59:47
  TRACK 131 AUDIO
    TITLE "LR_black_phrase_S02_131"
    INDEX 01 03:02:08
  TRACK 132 AUDIO
    TITLE "LR_black_phrase_S02_132"
    INDEX 01 03:03:11
  TRACK 133 AUDIO
    TITLE "LR_black_phrase_S02_133"
    INDEX 01 03:04:34
  TRACK 134 AUDIO
    TITLE "LR_black_phrase_S02_134"
    INDEX 01 03:04:72
  TRACK 135 AUDIO
    TITLE "LR_black_phrase_S02_135"
    INDEX 01 03:06:16
  TRACK 136 AUDIO
    TITLE "LR_black_phrase_S02_136"
    INDEX 01 03:07:15
  TRACK 137 AUDIO
    TITLE "LR_black_phrase_S02_137"
    INDEX 01 03:09:14
  TRACK 138 AUDIO
    TITLE "LR_black_phrase_S02_138"
    INDEX 01 03:09:53
  TRACK 139 AUDIO
    TITLE "LR_black_phrase_S02_139"
    INDEX 01 03:11:40
  TRACK 140 AUDIO
    TITLE "LR_black_phrase_S02_140"
    INDEX 01 03:11:68
  TRACK 141 AUDIO
    TITLE "LR_black_phrase_S02_141"
    INDEX 01 03:13:55
  TRACK 142 AUDIO
    TITLE "LR_black_phrase_S02_142"
    INDEX 01 03:14:56
  TRACK 143 AUDIO
    TITLE "LR_black_phrase_S02_143"
    INDEX 01 03:16:04
  TRACK 144 AUDIO
    TITLE "LR_black_phrase_S02_144"
    INDEX 01 03:16:43
  TRACK 145 AUDIO
    TITLE "LR_black_phrase_S02_145"
    INDEX 01 03:17:64
  TRACK 146 AUDIO
    TITLE "LR_black_phrase_S02_146"
    INDEX 01 03:18:62
  TRACK 147 AUDIO
    TITLE "LR_black_phrase_S02_147"
    INDEX 01 03:21:31
  TRACK 148 AUDIO
    TITLE "LR_black_phrase_S02_148"
    INDEX 01 03:21:70
  TRACK 149 AUDIO
    TITLE "LR_black_phrase_S02_149"
    INDEX 01 03:24:29
  TRACK 150 AUDIO
    TITLE "LR_black_phrase_S02_150"
    INDEX 01 03:24:61
  TRACK 151 AUDIO
    TITLE "LR_black_phrase_S02_151"
    INDEX 01 03:27:20
  TRACK 152 AUDIO
    TITLE "LR_black_phrase_S02_152"
    INDEX 01 03:28:25
  TRACK 153 AUDIO
    TITLE "LR_black_phrase_S02_153"
    INDEX 01 03:29:36
  TRACK 154 AUDIO
    TITLE "LR_black_phrase_S02_154"
    INDEX 01 03:29:75
  TRACK 155 AUDIO
    TITLE "LR_black_phrase_S02_155"
    INDEX 01 03:32:15
  TRACK 156 AUDIO
    TITLE "LR_black_phrase_S02_156"
    INDEX 01 03:33:14
  TRACK 157 AUDIO
    TITLE "LR_black_phrase_S02_157"
    INDEX 01 03:35:27
  TRACK 158 AUDIO
    TITLE "LR_black_phrase_S02_158"
    INDEX 01 03:35:66
  TRACK 159 AUDIO
    TITLE "LR_black_phrase_S02_159"
    INDEX 01 03:38:21
  TRACK 160 AUDIO
    TITLE "LR_black_phrase_S02_160"
    INDEX 01 03:38:51
  TRACK 161 AUDIO
    TITLE "LR_black_phrase_S02_161"
    INDEX 01 03:41:06
  TRACK 162 AUDIO
    TITLE "LR_black_phrase_S02_162"
    INDEX 01 03:42:13
  TRACK 163 AUDIO
    TITLE "LR_black_phrase_S02_163"
    INDEX 01 03:43:32
  TRACK 164 AUDIO
    TITLE "LR_black_phrase_S02_164"
    INDEX 01 03:43:72
  TRACK 165 AUDIO
    TITLE "LR_black_phrase_S02_165"
    INDEX 01 03:47:01
  TRACK 166 AUDIO
    TITLE "LR_black_phrase_S02_166"
    INDEX 01 03:47:75
  TRACK 167 AUDIO
    TITLE "LR_black_phrase_S02_167"
    INDEX 01 03:50:34
  TRACK 168 AUDIO
    TITLE "LR_black_phrase_S02_168"
    INDEX 01 03:50:74
  TRACK 169 AUDIO
    TITLE "LR_black_phrase_S02_169"
    INDEX 01 03:53:05
  TRACK 170 AUDIO
    TITLE "LR_black_phrase_S02_170"
    INDEX 01 03:53:35
  TRACK 171 AUDIO
    TITLE "LR_black_phrase_S02_171"
    INDEX 01 03:55:41
  TRACK 172 AUDIO
    TITLE "LR_black_phrase_S02_172"
    INDEX 01 03:56:47
  TRACK 173 AUDIO
    TITLE "LR_black_phrase_S02_173"
    INDEX 01 03:57:60
  TRACK 174 AUDIO
    TITLE "LR_black_phrase_S02_174"
    INDEX 01 03:58:24
  TRACK 175 AUDIO
    TITLE "LR_black_phrase_S02_175"
    INDEX 01 04:00:64
  TRACK 176 AUDIO
    TITLE "LR_black_phrase_S02_176"
    INDEX 01 04:01:64
  TRACK 177 AUDIO
    TITLE "LR_black_phrase_S02_177"
    INDEX 01 04:03:72
  TRACK 178 AUDIO
    TITLE "LR_black_phrase_S02_178"
    INDEX 01 04:04:40
  TRACK 179 AUDIO
    TITLE "LR_black_phrase_S02_179"
    INDEX 01 04:06:47
  TRACK 180 AUDIO
    TITLE "LR_black_phrase_S02_180"
    INDEX 01 04:07:03
  TRACK 181 AUDIO
    TITLE "LR_black_phrase_S02_181"
    INDEX 01 04:09:12
  TRACK 182 AUDIO
    TITLE "LR_black_phrase_S02_182"
    INDEX 01 04:10:18
  TRACK 183 AUDIO
    TITLE "LR_black_phrase_S02_183"
    INDEX 01 04:11:40
  TRACK 184 AUDIO
    TITLE "LR_black_phrase_S02_184"
    INDEX 01 04:12:09
  TRACK 185 AUDIO
    TITLE "LR_black_phrase_S02_185"
    INDEX 01 04:14:62
  TRACK 186 AUDIO
    TITLE "LR_black_phrase_S02_186"
    INDEX 01 04:15:62
  TRACK 187 AUDIO
    TITLE "LR_black_phrase_S02_187"
    INDEX 01 04:18:35
  TRACK 188 AUDIO
    TITLE "LR_black_phrase_S02_188"
    INDEX 01 04:19:01
  TRACK 189 AUDIO
    TITLE "LR_black_phrase_S02_189"
    INDEX 01 04:21:51
  TRACK 190 AUDIO
    TITLE "LR_black_phrase_S02_190"
    INDEX 01 04:22:07
  TRACK 191 AUDIO
    TITLE "LR_black_phrase_S02_191"
    INDEX 01 04:24:57
  TRACK 192 AUDIO
    TITLE "LR_black_phrase_S02_192"
    INDEX 01 04:25:62
  TRACK 193 AUDIO
    TITLE "LR_black_phrase_S02_193"
    INDEX 01 04:27:02
  TRACK 194 AUDIO
    TITLE "LR_black_phrase_S02_194"
    INDEX 01 04:27:36
  TRACK 195 AUDIO
    TITLE "LR_black_phrase_S02_195"
    INDEX 01 04:29:01
  TRACK 196 AUDIO
    TITLE "LR_black_phrase_S02_196"
    INDEX 01 04:30:03
  TRACK 197 AUDIO
    TITLE "LR_black_phrase_S02_197"
    INDEX 01 04:32:41
  TRACK 198 AUDIO
    TITLE "LR_black_phrase_S02_198"
    INDEX 01 04:33:07
  TRACK 199 AUDIO
    TITLE "LR_black_phrase_S02_199"
    INDEX 01 04:35:51
  TRACK 200 AUDIO
    TITLE "LR_black_phrase_S02_200"
    INDEX 01 04:36:07
  TRACK 201 AUDIO
    TITLE "LR_black_phrase_S02_201"
    INDEX 01 04:38:51
